<svg xmlns="http://www.w3.org/2000/svg" xmlns:xlink="http://www.w3.org/1999/xlink" id="mermaid-0" width="100%" aria-labelledby="chart-title-mermaid-0 chart-desc-mermaid-0" role="img" viewBox="0 0 173.026 152" style="max-width:173.026px;background-color:#fff"><title id="chart-title-mermaid-0"/><desc id="chart-desc-mermaid-0"/><style>#mermaid-0{fill:#000}#mermaid-0,#mermaid-0 svg{font-family:&quot;trebuchet ms&quot;,verdana,arial,sans-serif;font-size:16px}#mermaid-0 .entityBox{fill:#cde498;stroke:#13540c}#mermaid-0 .attributeBoxOdd{fill:#fff;stroke:#13540c}#mermaid-0 .attributeBoxEven{fill:#f2f2f2;stroke:#13540c}#mermaid-0 :root{--mermaid-font-family:&quot;trebuchet ms&quot;,verdana,arial,sans-serif}</style><defs><marker id="ONLY_ONE_START" markerHeight="18" markerWidth="18" orient="auto" refX="0" refY="9"><path fill="none" stroke="gray" d="M9,0 L9,18 M15,0 L15,18"/></marker></defs><defs><marker id="ONLY_ONE_END" markerHeight="18" markerWidth="18" orient="auto" refX="18" refY="9"><path fill="none" stroke="gray" d="M3,0 L3,18 M9,0 L9,18"/></marker></defs><defs><marker id="ZERO_OR_ONE_START" markerHeight="18" markerWidth="30" orient="auto" refX="0" refY="9"><circle cx="21" cy="9" r="6" fill="#fff" stroke="gray"/><path fill="none" stroke="gray" d="M9,0 L9,18"/></marker></defs><defs><marker id="ZERO_OR_ONE_END" markerHeight="18" markerWidth="30" orient="auto" refX="30" refY="9"><circle cx="9" cy="9" r="6" fill="#fff" stroke="gray"/><path fill="none" stroke="gray" d="M21,0 L21,18"/></marker></defs><defs><marker id="ONE_OR_MORE_START" markerHeight="36" markerWidth="45" orient="auto" refX="18" refY="18"><path fill="none" stroke="gray" d="M0,18 Q 18,0 36,18 Q 18,36 0,18 M42,9 L42,27"/></marker></defs><defs><marker id="ONE_OR_MORE_END" markerHeight="36" markerWidth="45" orient="auto" refX="27" refY="18"><path fill="none" stroke="gray" d="M3,9 L3,27 M9,18 Q27,0 45,18 Q27,36 9,18"/></marker></defs><defs><marker id="ZERO_OR_MORE_START" markerHeight="36" markerWidth="57" orient="auto" refX="18" refY="18"><circle cx="48" cy="18" r="6" fill="#fff" stroke="gray"/><path fill="none" stroke="gray" d="M0,18 Q18,0 36,18 Q18,36 0,18"/></marker></defs><defs><marker id="ZERO_OR_MORE_END" markerHeight="36" markerWidth="57" orient="auto" refX="39" refY="18"><circle cx="9" cy="18" r="6" fill="#fff" stroke="gray"/><path fill="none" stroke="gray" d="M21,18 Q39,0 57,18 Q39,36 21,18"/></marker></defs><g id="Pool" transform="translate(20,20 )"><rect width="133.026" height="112" x="0" y="0" fill="#f0fff0" fill-opacity="100%" stroke="gray" class="er entityBox"/><text transform="translate(66.51321411132812,12)" style="font-family:&quot;trebuchet ms&quot;,verdana,arial,sans-serif;font-size:12px" id="entity-Pool" x="0" y="0" class="er entityLabel" dominant-baseline="middle" text-anchor="middle">Pool</text><rect width="54.096" height="22" x="0" y="24" fill="#f0fff0" fill-opacity="100%" stroke="gray" class="er attributeBoxOdd"/><text transform="translate(5,35)" style="font-family:&quot;trebuchet ms&quot;,verdana,arial,sans-serif;font-size:10.2px" id="entity-Pool-attr-1-type" x="0" y="0" class="er entityLabel" dominant-baseline="middle" text-anchor="left">String</text><rect width="56.243" height="22" x="54.096" y="24" fill="#f0fff0" fill-opacity="100%" stroke="gray" class="er attributeBoxOdd"/><text transform="translate(59.095550537109375,35)" style="font-family:&quot;trebuchet ms&quot;,verdana,arial,sans-serif;font-size:10.2px" id="entity-Pool-attr-1-name" x="0" y="0" class="er entityLabel" dominant-baseline="middle" text-anchor="left">id</text><rect width="22.688" height="22" x="110.339" y="24" fill="#f0fff0" fill-opacity="100%" stroke="gray" class="er attributeBoxOdd"/><text transform="translate(115.3387451171875,35)" style="font-family:&quot;trebuchet ms&quot;,verdana,arial,sans-serif;font-size:10.2px" id="entity-Pool-attr-1-key" x="0" y="0" class="er entityLabel" dominant-baseline="middle" text-anchor="left">PK</text><rect width="54.096" height="22" x="0" y="46" fill="#f0fff0" fill-opacity="100%" stroke="gray" class="er attributeBoxEven"/><text transform="translate(5,57)" style="font-family:&quot;trebuchet ms&quot;,verdana,arial,sans-serif;font-size:10.2px" id="entity-Pool-attr-2-type" x="0" y="0" class="er entityLabel" dominant-baseline="middle" text-anchor="left">String</text><rect width="56.243" height="22" x="54.096" y="46" fill="#f0fff0" fill-opacity="100%" stroke="gray" class="er attributeBoxEven"/><text transform="translate(59.095550537109375,57)" style="font-family:&quot;trebuchet ms&quot;,verdana,arial,sans-serif;font-size:10.2px" id="entity-Pool-attr-2-name" x="0" y="0" class="er entityLabel" dominant-baseline="middle" text-anchor="left">title</text><rect width="22.688" height="22" x="110.339" y="46" fill="#f0fff0" fill-opacity="100%" stroke="gray" class="er attributeBoxEven"/><rect width="54.096" height="22" x="0" y="68" fill="#f0fff0" fill-opacity="100%" stroke="gray" class="er attributeBoxOdd"/><text transform="translate(5,79)" style="font-family:&quot;trebuchet ms&quot;,verdana,arial,sans-serif;font-size:10.2px" id="entity-Pool-attr-3-type" x="0" y="0" class="er entityLabel" dominant-baseline="middle" text-anchor="left">String</text><rect width="56.243" height="22" x="54.096" y="68" fill="#f0fff0" fill-opacity="100%" stroke="gray" class="er attributeBoxOdd"/><text transform="translate(59.095550537109375,79)" style="font-family:&quot;trebuchet ms&quot;,verdana,arial,sans-serif;font-size:10.2px" id="entity-Pool-attr-3-name" x="0" y="0" class="er entityLabel" dominant-baseline="middle" text-anchor="left">code</text><rect width="22.688" height="22" x="110.339" y="68" fill="#f0fff0" fill-opacity="100%" stroke="gray" class="er attributeBoxOdd"/><rect width="54.096" height="22" x="0" y="90" fill="#f0fff0" fill-opacity="100%" stroke="gray" class="er attributeBoxEven"/><text transform="translate(5,101)" style="font-family:&quot;trebuchet ms&quot;,verdana,arial,sans-serif;font-size:10.2px" id="entity-Pool-attr-4-type" x="0" y="0" class="er entityLabel" dominant-baseline="middle" text-anchor="left">DateTime</text><rect width="56.243" height="22" x="54.096" y="90" fill="#f0fff0" fill-opacity="100%" stroke="gray" class="er attributeBoxEven"/><text transform="translate(59.095550537109375,101)" style="font-family:&quot;trebuchet ms&quot;,verdana,arial,sans-serif;font-size:10.2px" id="entity-Pool-attr-4-name" x="0" y="0" class="er entityLabel" dominant-baseline="middle" text-anchor="left">createdAt</text><rect width="22.688" height="22" x="110.339" y="90" fill="#f0fff0" fill-opacity="100%" stroke="gray" class="er attributeBoxEven"/></g></svg>